# This file uses meters as units for non-parametric coordinates.

mtllib roca.mtl
g default
v 228.599768 905.875844 409.686692
v 217.883273 905.875844 401.900703
v 204.636959 906.452977 401.900707
v 193.920467 907.386799 409.686696
v 189.827133 907.743485 422.284688
v 193.920469 906.750649 434.882680
v 204.636963 903.515214 442.668666
v 217.883275 903.141076 442.668666
v 228.599766 905.568139 434.882678
v 232.693102 905.875844 422.284687
v 244.242090 913.509320 398.321876
v 223.858107 913.509320 383.512050
v 198.662121 914.058808 383.512054
v 179.165785 914.517727 398.321884
v 170.492159 914.517727 422.284689
v 178.278147 914.517727 446.247495
v 198.662128 914.169713 461.057319
v 223.858111 915.245427 461.057319
v 244.242086 916.491848 446.247490
v 252.028078 913.509324 422.284687
v 266.225015 926.630604 389.302707
v 238.168871 926.630604 368.918727
v 213.376081 926.630604 368.918735
v 185.694218 926.630604 389.302719
v 155.147833 926.630604 422.284690
v 165.864328 926.630604 455.266662
v 193.920473 926.630604 475.650638
v 228.599768 929.610878 475.650634
v 261.265947 930.604302 455.266655
v 293.009691 926.630604 422.284687
v 305.062746 945.965579 383.440364
v 272.080767 945.965579 359.549236
v 231.312801 945.965579 359.549243
v 179.246382 945.965579 383.512054
v 145.296167 945.965579 422.284691
v 157.894163 945.965579 461.057327
v 190.876140 945.965579 485.020130
v 231.644100 945.965579 485.020126
v 283.710497 945.965579 460.593582
v 317.660738 945.965579 421.446381
v 307.809076 967.398560 380.677497
v 273.129770 967.398560 356.320736
v 230.263798 967.398560 356.320743
v 174.935774 967.398560 381.516731
v 141.901522 967.398560 422.284691
v 155.147837 967.398560 463.052650
v 189.827137 967.398560 488.248630
v 232.693104 967.398560 488.248630
v 288.021112 967.398560 456.174598
v 321.055384 967.398560 408.815315
v 305.062746 988.831542 370.953571
v 272.080767 988.831542 346.385776
v 231.312801 988.831542 345.079601
v 179.246382 988.831542 383.512054
v 145.296167 988.831542 422.284691
v 157.894163 988.831542 461.057327
v 190.876140 988.831542 474.149837
v 231.644100 988.831542 472.533332
v 283.710497 988.831542 448.106788
v 317.660738 988.831542 408.959587
v 279.900598 1011.566163 375.833332
v 238.168871 1008.166516 354.744838
v 203.489568 1008.166516 355.796871
v 170.823381 1008.166516 379.020797
v 155.147833 1008.166516 412.002767
v 165.864328 1008.166516 444.984739
v 193.920473 1008.166516 463.550949
v 228.599768 1008.166516 462.181263
v 261.265947 1008.166516 441.797283
v 289.063997 1011.180077 408.815315
v 247.908018 1026.779278 384.852500
v 223.858107 1023.510838 370.042678
v 198.662121 1023.510838 370.042682
v 178.278143 1023.510838 384.852508
v 170.492159 1023.510838 408.815317
v 178.278147 1023.510838 432.778123
v 198.662128 1023.510838 447.587947
v 223.858111 1023.510838 447.587947
v 246.835775 1026.301026 432.778118
v 257.127359 1028.996445 408.815315
v 228.599768 1033.362504 396.217321
v 217.883273 1033.362504 388.431331
v 204.636959 1033.362504 388.431335
v 193.920467 1033.362504 396.217325
v 189.827133 1033.362504 408.815316
v 193.920469 1033.362504 421.413309
v 204.636963 1033.362504 429.199295
v 217.883275 1033.362504 429.199295
v 228.599766 1033.362504 421.413306
v 232.693102 1033.362504 408.815315
v 211.260118 903.245530 422.284687
v 211.260118 1036.757149 408.815315
vt 0.662717 0.584240
vt 0.662717 0.494711
vt 0.715201 0.478992
vt 0.715201 0.584240
vt 0.629836 0.584240
vt 0.629836 0.519193
vt 0.662717 0.439379
vt 0.715201 0.413945
vt 0.773381 0.473576
vt 0.773381 0.584240
vt 0.662717 0.673769
vt 0.715201 0.689488
vt 0.629836 0.649287
vt 0.773381 0.405182
vt 0.831560 0.478992
vt 0.831560 0.584240
vt 0.773381 0.694904
vt 0.628591 0.689488
vt 0.662717 0.729101
vt 0.884045 0.522621
vt 0.884045 0.612150
vt 0.831560 0.689488
vt 0.925697 0.555756
vt 0.925697 0.620802
vt 0.884045 0.701679
vt 0.773381 0.763298
vt 0.831560 0.793812
vt 0.925697 0.685849
vt 0.884045 0.764720
vt 0.925697 0.726050
vt 0.136670 0.621495
vt 0.136670 0.518328
vt 0.194849 0.510828
vt 0.194849 0.587208
vt 0.136670 0.453476
vt 0.194849 0.444712
vt 0.253029 0.484433
vt 0.253029 0.587600
vt 0.136670 0.727759
vt 0.194849 0.715764
vt 0.253029 0.417744
vt 0.314742 0.497679
vt 0.313694 0.587208
vt 0.253029 0.693864
vt 0.305514 0.676737
vt 0.362056 0.587208
vt 0.354739 0.652255
vt 0.137945 0.243747
vt 0.116810 0.272837
vt 0.066894 0.256618
vt 0.107096 0.201286
vt 0.172142 0.290815
vt 0.116810 0.308794
vt 0.066894 0.325012
vt 0.027281 0.217772
vt 0.082613 0.141614
vt 0.172142 0.232636
vt 0.172142 0.180151
vt 0.137945 0.337883
vt 0.107096 0.377935
vt 0.027281 0.285071
vt 0.001848 0.125718
vt 0.066700 0.036189
vt 0.172142 0.068907
vt 0.206339 0.243747
vt 0.237189 0.201286
vt 0.172142 0.348995
vt 0.172142 0.401479
vt 0.169867 0.001992
vt 0.261671 0.155075
vt 0.227474 0.272837
vt 0.277390 0.256618
vt 0.206339 0.337883
vt 0.237189 0.380344
vt 0.276131 0.094150
vt 0.317003 0.243747
vt 0.227474 0.308794
vt 0.277390 0.325012
vt 0.342437 0.235483
vt 0.317003 0.337883
vt 0.261671 0.414041
vt 0.526464 0.045420
vt 0.615994 0.070294
vt 0.591511 0.157138
vt 0.526464 0.132112
vt 0.673238 0.183575
vt 0.631712 0.222421
vt 0.560661 0.209550
vt 0.526464 0.198439
vt 0.629239 0.001992
vt 0.695929 0.091521
vt 0.670382 0.277711
vt 0.631712 0.290815
vt 0.581796 0.238640
vt 0.526464 0.256618
vt 0.461418 0.160048
vt 0.492267 0.209550
vt 0.581796 0.274597
vt 0.421217 0.222421
vt 0.471132 0.238640
vt 0.591511 0.346147
vt 0.560661 0.303686
vt 0.381603 0.209550
vt 0.436935 0.120878
vt 0.421217 0.290815
vt 0.471132 0.274597
vt 0.526464 0.367282
vt 0.526464 0.314798
vt 0.353503 0.201286
vt 0.419808 0.059952
vt 0.377885 0.303686
vt 0.461418 0.346147
vt 0.492267 0.303686
vt 0.428283 0.379844
vt 0.384654 0.401479
vt 0.349115 0.311950
vt 0.223176 0.826363
vt 0.223176 0.893662
vt 0.170691 0.844973
vt 0.170691 0.734309
vt 0.223176 0.968804
vt 0.170691 0.986307
vt 0.112512 0.847821
vt 0.112512 0.731462
vt 0.112512 0.998008
vt 0.054332 0.844973
vt 0.054332 0.734309
vt 0.001848 0.920499
vt 0.001848 0.826363
vt 0.401572 0.660617
vt 0.409662 0.566480
vt 0.454056 0.558216
vt 0.454056 0.668880
vt 0.367747 0.647745
vt 0.370667 0.579351
vt 0.512236 0.555369
vt 0.512236 0.671728
vt 0.454056 0.416883
vt 0.512236 0.405182
vt 0.570415 0.558216
vt 0.570415 0.668880
vt 0.570415 0.416883
vt 0.622900 0.566480
vt 0.622900 0.660617
vt 0.512236 0.765864
vt 0.570415 0.758410
vn 0.225355 -0.923584 -0.310174
vn 0.225355 -0.923584 -0.310174
vn 0.225355 -0.923584 -0.310174
vn 0.225355 -0.923584 -0.310174
vn -0.027065 -0.923491 -0.382664
vn -0.027065 -0.923491 -0.382664
vn -0.027065 -0.923491 -0.382664
vn -0.027065 -0.923491 -0.382664
vn -0.253411 -0.925405 -0.281795
vn -0.253411 -0.925405 -0.281795
vn -0.253411 -0.925405 -0.281795
vn -0.253411 -0.925405 -0.281795
vn -0.343459 -0.932605 -0.110837
vn -0.343459 -0.932605 -0.110837
vn -0.343459 -0.932605 -0.110837
vn -0.343459 -0.932605 -0.110837
vn -0.357013 -0.929680 0.090754
vn -0.357013 -0.929680 0.090754
vn -0.357013 -0.929680 0.090754
vn -0.357013 -0.929680 0.090754
vn -0.329527 -0.891017 0.312250
vn -0.329527 -0.891017 0.312250
vn -0.329527 -0.891017 0.312250
vn -0.329527 -0.891017 0.312250
vn 0.015517 -0.850246 0.526157
vn 0.015517 -0.850246 0.526157
vn 0.015517 -0.850246 0.526157
vn 0.015517 -0.850246 0.526157
vn 0.376229 -0.844794 0.380493
vn 0.376229 -0.844794 0.380493
vn 0.376229 -0.844794 0.380493
vn 0.376229 -0.844794 0.380493
vn 0.408452 -0.891067 0.197905
vn 0.408452 -0.891067 0.197905
vn 0.408452 -0.891067 0.197905
vn 0.408452 -0.891067 0.197905
vn 0.364632 -0.923584 -0.118476
vn 0.364632 -0.923584 -0.118476
vn 0.364632 -0.923584 -0.118476
vn 0.364632 -0.923584 -0.118476
vn 0.319987 -0.838829 -0.440425
vn 0.319987 -0.838829 -0.440425
vn 0.319987 -0.838829 -0.440425
vn 0.319987 -0.838829 -0.440425
vn -0.008206 -0.746514 -0.665319
vn -0.008206 -0.746514 -0.665319
vn -0.008206 -0.746514 -0.665319
vn -0.008206 -0.746514 -0.665319
vn -0.581632 -0.242281 -0.776533
vn -0.581632 -0.242281 -0.776533
vn -0.581632 -0.242281 -0.776533
vn -0.581632 -0.242281 -0.776533
vn -0.733402 -0.454944 -0.505121
vn -0.733402 -0.454944 -0.505121
vn -0.733402 -0.454944 -0.505121
vn -0.733402 -0.454944 -0.505121
vn -0.607423 -0.769470 0.197364
vn -0.607423 -0.769470 0.197364
vn -0.607423 -0.769470 0.197364
vn -0.607423 -0.769470 0.197364
vn -0.382167 -0.764961 0.518443
vn -0.382167 -0.764961 0.518443
vn -0.382167 -0.764961 0.518443
vn -0.382167 -0.764961 0.518443
vn 0.049812 -0.735336 0.675870
vn 0.049812 -0.735336 0.675870
vn 0.049812 -0.735336 0.675870
vn 0.049812 -0.735336 0.675870
vn 0.389836 -0.745825 0.540161
vn 0.389836 -0.745825 0.540161
vn 0.389836 -0.745825 0.540161
vn 0.389836 -0.745825 0.540161
vn 0.352730 -0.867469 0.350825
vn 0.352730 -0.867469 0.350825
vn 0.352730 -0.867469 0.350825
vn 0.352730 -0.867469 0.350825
vn 0.349854 -0.912410 -0.212393
vn 0.349854 -0.912410 -0.212393
vn 0.349854 -0.912410 -0.212393
vn 0.349854 -0.912410 -0.212393
vn 0.337524 -0.818267 -0.465314
vn 0.337524 -0.818267 -0.465314
vn 0.337524 -0.818267 -0.465314
vn 0.337524 -0.818267 -0.465314
vn -0.000000 -0.436083 -0.899906
vn -0.000000 -0.436083 -0.899906
vn -0.000000 -0.436083 -0.899906
vn -0.000000 -0.436083 -0.899906
vn -0.476719 -0.194453 -0.857279
vn -0.476719 -0.194453 -0.857279
vn -0.476719 -0.194453 -0.857279
vn -0.476719 -0.194453 -0.857279
vn -0.687260 -0.382187 -0.617743
vn -0.687260 -0.382187 -0.617743
vn -0.687260 -0.382187 -0.617743
vn -0.687260 -0.382187 -0.617743
vn -0.855862 -0.436084 0.278086
vn -0.855862 -0.436084 0.278086
vn -0.855862 -0.436084 0.278086
vn -0.855862 -0.436084 0.278086
vn -0.528951 -0.436084 0.728039
vn -0.528952 -0.436084 0.728039
vn -0.528951 -0.436084 0.728039
vn -0.528952 -0.436084 0.728040
vn 0.018360 -0.464793 0.885229
vn 0.018360 -0.464793 0.885229
vn 0.018360 -0.464793 0.885229
vn 0.018360 -0.464793 0.885229
vn 0.372618 -0.619582 0.690850
vn 0.372618 -0.619582 0.690850
vn 0.372618 -0.619582 0.690850
vn 0.372618 -0.619582 0.690850
vn 0.488364 -0.725604 0.484768
vn 0.488364 -0.725604 0.484768
vn 0.488364 -0.725604 0.484768
vn 0.488364 -0.725604 0.484768
vn 0.480668 -0.835373 -0.266665
vn 0.480668 -0.835373 -0.266665
vn 0.480668 -0.835373 -0.266665
vn 0.480668 -0.835373 -0.266665
vn 0.572823 -0.162996 -0.803309
vn 0.572824 -0.162996 -0.803309
vn 0.572823 -0.162996 -0.803309
vn 0.572823 -0.162996 -0.803309
vn -0.000000 -0.148952 -0.988845
vn -0.000000 -0.148952 -0.988845
vn -0.000000 -0.148952 -0.988844
vn -0.000000 -0.148952 -0.988844
vn -0.410798 -0.160729 -0.897447
vn -0.410798 -0.160729 -0.897447
vn -0.410798 -0.160729 -0.897447
vn -0.410798 -0.160729 -0.897447
vn -0.754391 -0.165175 -0.635304
vn -0.754391 -0.165175 -0.635304
vn -0.754391 -0.165175 -0.635304
vn -0.754391 -0.165175 -0.635304
vn -0.940447 -0.148952 0.305570
vn -0.940447 -0.148952 0.305570
vn -0.940447 -0.148952 0.305570
vn -0.940447 -0.148952 0.305570
vn -0.581228 -0.148952 0.799992
vn -0.581228 -0.148952 0.799992
vn -0.581228 -0.148952 0.799992
vn -0.581228 -0.148952 0.799992
vn 0.000000 -0.148952 0.988844
vn 0.000000 -0.148952 0.988844
vn 0.000000 -0.148952 0.988845
vn 0.000000 -0.148952 0.988845
vn 0.465336 -0.033618 0.884495
vn 0.465336 -0.033618 0.884495
vn 0.465336 -0.033618 0.884495
vn 0.465336 -0.033618 0.884495
vn 0.786638 0.100878 0.609117
vn 0.786638 0.100878 0.609117
vn 0.786638 0.100878 0.609117
vn 0.786638 0.100878 0.609117
vn 0.900541 -0.255373 -0.351867
vn 0.900541 -0.255373 -0.351867
vn 0.900541 -0.255373 -0.351867
vn 0.900541 -0.255373 -0.351867
vn 0.558110 -0.304566 -0.771850
vn 0.558110 -0.304566 -0.771850
vn 0.558110 -0.304566 -0.771850
vn 0.558110 -0.304566 -0.771850
vn 0.014001 -0.442867 -0.896478
vn 0.014001 -0.442867 -0.896478
vn 0.014001 -0.442867 -0.896478
vn 0.014001 -0.442867 -0.896478
vn -0.505986 -0.120941 -0.854021
vn -0.505985 -0.120941 -0.854021
vn -0.505985 -0.120941 -0.854021
vn -0.505985 -0.120941 -0.854021
vn -0.754391 0.165175 -0.635304
vn -0.754391 0.165175 -0.635304
vn -0.754391 0.165175 -0.635304
vn -0.754391 0.165175 -0.635304
vn -0.940447 0.148952 0.305570
vn -0.940447 0.148952 0.305570
vn -0.940447 0.148952 0.305570
vn -0.940447 0.148952 0.305570
vn -0.461839 0.347311 0.816137
vn -0.461839 0.347311 0.816137
vn -0.461839 0.347311 0.816137
vn -0.461839 0.347311 0.816137
vn 0.015866 0.570919 0.820853
vn 0.015866 0.570919 0.820853
vn 0.015866 0.570919 0.820853
vn 0.015866 0.570919 0.820853
vn 0.408098 0.481402 0.775699
vn 0.408098 0.481402 0.775699
vn 0.408098 0.481402 0.775699
vn 0.408098 0.481402 0.775699
vn 0.766100 0.247361 0.593214
vn 0.766100 0.247361 0.593214
vn 0.766100 0.247361 0.593214
vn 0.766100 0.247361 0.593214
vn 0.930163 0.052034 -0.363441
vn 0.930163 0.052034 -0.363441
vn 0.930163 0.052034 -0.363441
vn 0.930163 0.052034 -0.363441
vn 0.352665 0.693063 -0.628722
vn 0.352665 0.693063 -0.628722
vn 0.352665 0.693063 -0.628722
vn 0.352665 0.693063 -0.628722
vn 0.003015 0.446273 -0.894892
vn 0.003015 0.446273 -0.894892
vn 0.003015 0.446273 -0.894892
vn 0.003015 0.446273 -0.894892
vn -0.542217 -0.388260 -0.745154
vn -0.542217 -0.388260 -0.745154
vn -0.542217 -0.388260 -0.745154
vn -0.542217 -0.388260 -0.745154
vn -0.808461 -0.183739 -0.559135
vn -0.808461 -0.183739 -0.559135
vn -0.808461 -0.183739 -0.559135
vn -0.808461 -0.183739 -0.559135
vn -0.797802 0.544349 0.259222
vn -0.797802 0.544349 0.259222
vn -0.797802 0.544349 0.259222
vn -0.797802 0.544349 0.259222
vn -0.369505 0.596609 0.712407
vn -0.369505 0.596609 0.712407
vn -0.369505 0.596609 0.712407
vn -0.369505 0.596609 0.712407
vn 0.034779 0.476078 0.878715
vn 0.034779 0.476078 0.878715
vn 0.034779 0.476078 0.878715
vn 0.034779 0.476078 0.878715
vn 0.384962 0.567384 0.727928
vn 0.384962 0.567384 0.727928
vn 0.384962 0.567384 0.727928
vn 0.384962 0.567384 0.727929
vn 0.519914 0.710138 0.474757
vn 0.519914 0.710138 0.474757
vn 0.519914 0.710138 0.474757
vn 0.519914 0.710138 0.474757
vn 0.621614 0.760818 -0.186418
vn 0.621614 0.760818 -0.186418
vn 0.621614 0.760818 -0.186418
vn 0.621614 0.760818 -0.186418
vn 0.227459 0.793668 -0.564229
vn 0.227459 0.793668 -0.564229
vn 0.227459 0.793668 -0.564229
vn 0.227459 0.793668 -0.564229
vn -0.012727 0.689353 -0.724314
vn -0.012727 0.689353 -0.724314
vn -0.012727 0.689353 -0.724314
vn -0.012727 0.689353 -0.724314
vn -0.503677 0.502744 -0.702537
vn -0.503677 0.502744 -0.702537
vn -0.503677 0.502744 -0.702537
vn -0.503677 0.502744 -0.702537
vn -0.750443 0.584157 -0.309186
vn -0.750443 0.584157 -0.309186
vn -0.750443 0.584157 -0.309186
vn -0.750443 0.584157 -0.309186
vn -0.667391 0.712437 0.216849
vn -0.667391 0.712437 0.216849
vn -0.667391 0.712437 0.216849
vn -0.667391 0.712437 0.216849
vn -0.386820 0.731566 0.561410
vn -0.386820 0.731566 0.561410
vn -0.386820 0.731566 0.561410
vn -0.386820 0.731566 0.561410
vn 0.016208 0.705485 0.708540
vn 0.016208 0.705485 0.708540
vn 0.016208 0.705485 0.708540
vn 0.016208 0.705485 0.708540
vn 0.373612 0.667920 0.643659
vn 0.373612 0.667920 0.643659
vn 0.373612 0.667920 0.643659
vn 0.373612 0.667920 0.643659
vn 0.505991 0.756526 0.414296
vn 0.505991 0.756526 0.414296
vn 0.505991 0.756526 0.414296
vn 0.505991 0.756526 0.414296
vn 0.433595 0.885226 -0.168437
vn 0.433595 0.885226 -0.168437
vn 0.433595 0.885226 -0.168437
vn 0.433595 0.885226 -0.168437
vn 0.156160 0.914763 -0.372589
vn 0.156160 0.914763 -0.372589
vn 0.156160 0.914763 -0.372589
vn 0.156160 0.914763 -0.372589
vn -0.000000 0.881468 -0.472244
vn -0.000000 0.881468 -0.472244
vn -0.000000 0.881468 -0.472244
vn -0.000000 0.881468 -0.472244
vn -0.277578 0.881468 -0.382053
vn -0.277578 0.881468 -0.382053
vn -0.277578 0.881468 -0.382053
vn -0.277578 0.881468 -0.382053
vn -0.449130 0.881468 -0.145931
vn -0.449131 0.881468 -0.145931
vn -0.449130 0.881468 -0.145931
vn -0.449131 0.881468 -0.145931
vn -0.449130 0.881468 0.145931
vn -0.449131 0.881468 0.145932
vn -0.449131 0.881468 0.145931
vn -0.449131 0.881468 0.145932
vn -0.277578 0.881468 0.382053
vn -0.277578 0.881468 0.382053
vn -0.277578 0.881468 0.382053
vn -0.277578 0.881468 0.382053
vn 0.000000 0.881468 0.472244
vn 0.000000 0.881468 0.472244
vn 0.000000 0.881468 0.472244
vn 0.000000 0.881468 0.472244
vn 0.175757 0.910416 0.374503
vn 0.175757 0.910416 0.374503
vn 0.175757 0.910416 0.374503
vn 0.175757 0.910416 0.374503
vn 0.216482 0.963706 0.156224
vn 0.216482 0.963706 0.156224
vn 0.216482 0.963706 0.156224
vn 0.216482 0.963706 0.156224
vn 0.207628 0.968936 -0.134362
vn 0.207628 0.968936 -0.134362
vn 0.207628 0.968936 -0.134362
vn 0.207628 0.968936 -0.134362
vn 0.075223 -0.991777 -0.103536
vn 0.075223 -0.991777 -0.103536
vn 0.075223 -0.991777 -0.103536
vn -0.043089 -0.988983 -0.141617
vn -0.043089 -0.988983 -0.141617
vn -0.043089 -0.988983 -0.141617
vn -0.160016 -0.981779 -0.102491
vn -0.160016 -0.981779 -0.102491
vn -0.160016 -0.981779 -0.102491
vn -0.205231 -0.977936 -0.038996
vn -0.205231 -0.977936 -0.038996
vn -0.205231 -0.977936 -0.038996
vn -0.205376 -0.978628 -0.010394
vn -0.205376 -0.978628 -0.010394
vn -0.205376 -0.978628 -0.010394
vn -0.243846 -0.967536 -0.066430
vn -0.243846 -0.967536 -0.066429
vn -0.243846 -0.967536 -0.066429
vn -0.028233 -0.999593 0.004051
vn -0.028233 -0.999593 0.004051
vn -0.028233 -0.999593 0.004051
vn 0.177009 -0.982220 -0.062547
vn 0.177009 -0.982220 -0.062547
vn 0.177009 -0.982220 -0.062547
vn 0.121795 -0.992437 0.015334
vn 0.121795 -0.992437 0.015334
vn 0.121795 -0.992437 0.015334
vn 0.121714 -0.991777 -0.039547
vn 0.121714 -0.991777 -0.039547
vn 0.121714 -0.991777 -0.039547
vn 0.096557 0.986415 -0.132900
vn 0.096557 0.986415 -0.132900
vn 0.096557 0.986415 -0.132900
vn -0.000000 0.986415 -0.164273
vn -0.000000 0.986415 -0.164273
vn -0.000000 0.986415 -0.164273
vn -0.096557 0.986415 -0.132899
vn -0.096557 0.986415 -0.132899
vn -0.096557 0.986415 -0.132899
vn -0.156233 0.986415 -0.050763
vn -0.156233 0.986415 -0.050763
vn -0.156233 0.986415 -0.050763
vn -0.156233 0.986415 0.050763
vn -0.156233 0.986415 0.050763
vn -0.156233 0.986415 0.050763
vn -0.096557 0.986415 0.132899
vn -0.096557 0.986415 0.132899
vn -0.096557 0.986415 0.132899
vn 0.000000 0.986415 0.164273
vn 0.000000 0.986415 0.164273
vn 0.000000 0.986415 0.164273
vn 0.096557 0.986415 0.132900
vn 0.096557 0.986415 0.132900
vn 0.096557 0.986415 0.132900
vn 0.156233 0.986415 0.050763
vn 0.156233 0.986415 0.050763
vn 0.156233 0.986415 0.050763
vn 0.156233 0.986415 -0.050763
vn 0.156233 0.986415 -0.050763
vn 0.156233 0.986415 -0.050763
s off
g pSphere1
usemtl initialShadingGroup
f 1/48/1 2/49/2 12/50/3 11/51/4
f 2/49/5 3/53/6 13/54/7 12/50/8
f 3/53/9 4/59/10 14/60/11 13/54/12
f 4/59/13 5/67/14 15/68/15 14/60/16
f 5/67/17 6/73/18 16/74/19 15/68/20
f 6/73/21 7/77/22 17/78/23 16/74/24
f 7/77/25 8/71/26 18/72/27 17/78/28
f 8/71/29 9/65/30 19/66/31 18/72/32
f 9/65/33 10/57/34 20/58/35 19/66/36
f 10/57/37 1/48/38 11/51/39 20/58/40
f 11/51/41 12/50/42 22/55/43 21/56/44
f 12/50/45 13/54/46 23/61/47 22/55/48
f 13/18/49 14/13/50 24/11/51 23/19/52
f 14/13/53 15/5/54 25/1/55 24/11/56
f 15/5/57 16/6/58 26/2/59 25/1/60
f 16/74/61 17/78/62 27/80/63 26/81/64
f 17/134/65 18/135/66 28/131/67 27/130/68
f 18/72/69 19/66/70 29/70/71 28/76/72
f 19/66/73 20/58/74 30/64/75 29/70/76
f 20/58/77 11/51/78 21/56/79 30/64/80
f 21/56/81 22/55/82 32/62/83 31/63/84
f 22/117/85 23/118/86 33/119/87 32/120/88
f 23/118/89 24/121/90 34/122/91 33/119/92
f 24/11/93 25/1/94 35/4/95 34/12/96
f 25/1/97 26/2/98 36/3/99 35/4/100
f 26/2/101 27/7/102 37/8/103 36/3/104
f 27/130/105 28/131/106 38/132/107 37/133/108
f 28/76/109 29/70/110 39/75/111 38/79/112
f 29/70/113 30/64/114 40/69/115 39/75/116
f 30/64/117 21/56/118 31/63/119 40/69/120
f 31/32/121 32/35/122 42/36/123 41/33/124
f 32/120/125 33/119/126 43/123/127 42/124/128
f 33/119/129 34/122/130 44/125/131 43/123/132
f 34/12/133 35/4/134 45/10/135 44/17/136
f 35/4/137 36/3/138 46/9/139 45/10/140
f 36/3/141 37/8/142 47/14/143 46/9/144
f 37/133/145 38/132/146 48/136/147 47/137/148
f 38/132/149 39/138/150 49/139/151 48/136/152
f 39/39/153 40/31/154 50/34/155 49/40/156
f 40/31/157 31/32/158 41/33/159 50/34/160
f 41/33/161 42/36/162 52/41/163 51/37/164
f 42/124/165 43/123/166 53/126/167 52/127/168
f 43/26/169 44/17/170 54/22/171 53/27/172
f 44/17/173 45/10/174 55/16/175 54/22/176
f 45/10/177 46/9/178 56/15/179 55/16/180
f 46/145/181 47/137/182 57/141/183 56/146/184
f 47/137/185 48/136/186 58/140/187 57/141/188
f 48/136/189 49/139/190 59/142/191 58/140/192
f 49/40/193 50/34/194 60/38/195 59/44/196
f 50/34/197 41/33/198 51/37/199 60/38/200
f 51/90/201 52/91/202 62/86/203 61/83/204
f 52/127/205 53/126/206 63/128/207 62/129/208
f 53/27/209 54/22/210 64/25/211 63/29/212
f 54/22/213 55/16/214 65/21/215 64/25/216
f 55/16/217 56/15/218 66/20/219 65/21/220
f 56/115/221 57/116/222 67/111/223 66/114/224
f 57/141/225 58/140/226 68/143/227 67/144/228
f 58/109/229 59/110/230 69/104/231 68/103/232
f 59/44/233 60/38/234 70/43/235 69/45/236
f 60/38/237 51/37/238 61/42/239 70/43/240
f 61/83/241 62/86/242 72/87/243 71/84/244
f 62/86/245 63/92/246 73/93/247 72/87/248
f 63/29/249 64/25/250 74/28/251 73/30/252
f 64/25/253 65/21/254 75/24/255 74/28/256
f 65/21/257 66/20/258 76/23/259 75/24/260
f 66/114/261 67/111/262 77/105/263 76/112/264
f 67/111/265 68/103/266 78/99/267 77/105/268
f 68/103/269 69/104/270 79/96/271 78/99/272
f 69/45/273 70/43/274 80/46/275 79/47/276
f 70/82/277 61/83/278 71/84/279 80/85/280
f 71/84/281 72/87/282 82/94/283 81/88/284
f 72/87/285 73/93/286 83/98/287 82/94/288
f 73/93/289 74/101/290 84/102/291 83/98/292
f 74/101/293 75/107/294 85/108/295 84/102/296
f 75/107/297 76/112/298 86/113/299 85/108/300
f 76/112/301 77/105/302 87/106/303 86/113/304
f 77/105/305 78/99/306 88/100/307 87/106/308
f 78/99/309 79/96/310 89/97/311 88/100/312
f 79/96/313 80/85/314 90/89/315 89/97/316
f 80/85/317 71/84/318 81/88/319 90/89/320
f 2/49/321 1/48/322 91/52/323
f 3/53/324 2/49/325 91/52/326
f 4/59/327 3/53/328 91/52/329
f 5/67/330 4/59/331 91/52/332
f 6/73/333 5/67/334 91/52/335
f 7/77/336 6/73/337 91/52/338
f 8/71/339 7/77/340 91/52/341
f 9/65/342 8/71/343 91/52/344
f 10/57/345 9/65/346 91/52/347
f 1/48/348 10/57/349 91/52/350
f 81/88/351 82/94/352 92/95/353
f 82/94/354 83/98/355 92/95/356
f 83/98/357 84/102/358 92/95/359
f 84/102/360 85/108/361 92/95/362
f 85/108/363 86/113/364 92/95/365
f 86/113/366 87/106/367 92/95/368
f 87/106/369 88/100/370 92/95/371
f 88/100/372 89/97/373 92/95/374
f 89/97/375 90/89/376 92/95/377
f 90/89/378 81/88/379 92/95/380
